<svg xmlns="http://www.w3.org/2000/svg" viewBox="0 0 420 120" width="420" height="120">

  <!-- moustache curves -->
  <path d="
    M40 70
    C80 10,160 10,210 60
    C260 10,340 10,380 70
    C340 95,280 85,230 65
    C220 60,200 60,190 65
    C140 85,80 95,40 70
  " fill="#111" stroke="#000" stroke-width="3"></path>

  <!-- git-style commit nodes -->
  <circle cx="90" cy="50" r="4" fill="#2fd4c6"></circle>
  <circle cx="140" cy="35" r="4" fill="#2fd4c6"></circle>
  <circle cx="180" cy="45" r="4" fill="#2fd4c6"></circle>
  <circle cx="210" cy="60" r="4" fill="#ff7a18"></circle>
  <circle cx="240" cy="45" r="4" fill="#2fd4c6"></circle>
  <circle cx="280" cy="35" r="4" fill="#2fd4c6"></circle>
  <circle cx="330" cy="50" r="4" fill="#2fd4c6"></circle>

  <!-- git branch lines -->
  <path d="M90 50 L140 35 L180 45 L210 60 L240 45 L280 35 L330 50" stroke="#2fd4c6" stroke-width="2" fill="none" opacity="0.6"></path>

</svg>